<?xml version="1.0" standalone="no"?>
<!DOCTYPE svg PUBLIC "-//W3C//DTD SVG 20010904//EN"
 "http://www.w3.org/TR/2001/REC-SVG-20010904/DTD/svg10.dtd">
<svg version="1.0" xmlns="http://www.w3.org/2000/svg"
 width="972.000000pt" height="972.000000pt" viewBox="0 0 972.000000 972.000000"
 preserveAspectRatio="xMidYMid meet">
<metadata>
Created by potrace 1.11, written by Peter Selinger 2001-2013
</metadata>
<g transform="translate(0.000000,972.000000) scale(0.100000,-0.100000)"
fill="#000000" stroke="none">
<path d="M4027 8594 c-1 -1 -33 -5 -72 -9 -73 -6 -226 -36 -298 -57 -23 -6
-44 -12 -47 -13 -3 0 -30 -9 -60 -20 -30 -11 -57 -20 -60 -20 -3 -1 -18 -7
-33 -13 -16 -7 -30 -12 -33 -12 -9 0 -221 -105 -269 -133 -86 -51 -160 -100
-163 -109 -2 -4 -8 -8 -13 -8 -6 0 -15 -4 -22 -10 -100 -82 -149 -112 -184
-113 -7 0 -13 -4 -13 -9 0 -4 -8 -8 -18 -8 -10 0 -23 -5 -30 -12 -7 -7 -12 -9
-12 -4 0 4 -17 -1 -37 -12 -21 -10 -67 -33 -103 -51 -78 -38 -106 -59 -179
-133 -52 -52 -147 -195 -158 -239 -3 -10 -9 -19 -14 -19 -5 0 -9 -5 -9 -11 0
-6 -11 -33 -25 -60 -13 -27 -21 -49 -17 -49 4 0 2 -4 -4 -8 -17 -12 -214 -461
-214 -488 0 -8 -5 -14 -12 -14 -6 0 -9 -3 -6 -6 6 -5 -24 -87 -59 -163 -8 -18
-16 -39 -18 -45 -1 -6 -6 -20 -10 -31 -46 -113 -77 -192 -79 -200 -1 -5 -12
-32 -24 -59 -12 -27 -22 -54 -22 -60 0 -7 -4 -16 -8 -21 -4 -6 -23 -46 -41
-90 -18 -44 -37 -87 -42 -95 -5 -8 -12 -22 -15 -30 -3 -8 -17 -41 -31 -74 -14
-32 -26 -63 -27 -70 -1 -6 -4 -15 -7 -21 -6 -9 -31 -81 -34 -95 -1 -3 -13 -43
-28 -89 -24 -72 -28 -101 -28 -210 -1 -120 4 -203 16 -281 3 -19 8 -53 10 -75
2 -22 7 -56 10 -75 3 -19 8 -47 10 -62 3 -15 9 -38 15 -52 5 -15 7 -26 4 -26
-4 0 -2 -6 4 -12 6 -7 11 -17 11 -23 2 -24 27 -84 55 -137 57 -104 193 -246
343 -359 51 -38 94 -69 97 -69 2 0 39 -20 80 -45 42 -25 78 -45 81 -45 3 0 21
-7 42 -15 52 -22 150 -47 203 -52 72 -7 70 -4 49 -85 -11 -40 -22 -80 -24 -88
-2 -8 -4 -15 -5 -15 -1 0 -3 -9 -5 -20 -2 -11 -6 -31 -9 -45 -11 -48 -17 -75
-22 -100 -3 -14 -7 -33 -10 -42 -3 -10 -7 -30 -10 -45 -2 -16 -7 -39 -10 -53
-3 -14 -8 -35 -10 -47 -22 -124 -46 -249 -51 -263 -8 -24 -43 54 -149 335 -4
11 -8 22 -9 25 -1 3 -4 12 -7 20 -4 8 -25 67 -48 130 -47 132 -149 343 -182
380 -25 27 -75 53 -87 45 -5 -2 -28 -6 -52 -8 -24 -3 -62 -13 -84 -22 -22 -10
-43 -19 -48 -19 -4 -1 -29 -20 -56 -43 -38 -33 -78 -90 -86 -123 -1 -3 -6 -14
-11 -25 -11 -24 -12 -244 -1 -300 9 -47 24 -106 39 -155 25 -81 71 -206 79
-216 5 -6 7 -13 4 -16 -3 -3 1 -11 10 -18 8 -7 15 -19 15 -28 0 -31 161 -345
283 -552 80 -135 262 -420 287 -447 6 -7 20 -30 32 -50 12 -21 25 -40 28 -43
3 -3 28 -37 56 -76 53 -74 59 -88 69 -169 3 -27 8 -66 12 -85 14 -77 16 -71
-45 -115 -56 -39 -192 -175 -192 -190 0 -3 -8 -15 -19 -26 -10 -11 -39 -59
-63 -107 -114 -220 -108 -433 15 -562 74 -78 226 -143 348 -149 11 -1 21 -21
33 -68 9 -36 27 -85 40 -107 25 -43 110 -136 125 -136 4 0 16 -9 26 -20 24
-26 133 -57 270 -76 51 -7 262 -7 295 1 21 4 54 11 105 19 6 1 15 4 20 8 6 3
26 9 45 13 116 25 285 145 385 276 43 55 121 189 110 189 -3 0 -1 9 5 19 9 19
36 110 46 161 3 13 7 26 9 28 5 5 202 13 349 15 81 1 100 -1 102 -13 1 -8 5
-28 9 -45 4 -16 10 -50 15 -75 4 -25 16 -65 25 -90 9 -25 17 -49 19 -55 15
-51 81 -152 130 -200 33 -31 46 -40 136 -89 30 -16 57 -33 58 -38 2 -4 11 -8
21 -8 9 0 21 -4 26 -9 10 -10 147 -69 175 -76 8 -2 15 -4 15 -5 0 -1 7 -3 15
-5 8 -2 29 -6 45 -10 115 -25 310 -25 415 0 14 4 32 7 40 8 8 2 33 8 55 16
138 44 240 154 276 296 6 26 18 49 25 51 8 2 22 7 32 11 9 3 22 7 27 7 19 2
90 29 130 49 37 18 156 131 198 188 94 123 117 311 56 446 -10 23 -19 45 -19
48 0 3 -22 39 -50 79 -56 84 -175 208 -268 281 l-64 50 7 50 c4 27 8 56 8 63
0 6 4 12 9 12 5 0 7 3 4 8 -2 4 0 30 5 57 6 28 12 61 13 75 9 64 19 127 22
145 2 11 7 43 9 70 3 28 8 68 11 90 7 65 17 244 18 332 1 46 3 83 6 83 7 0 5
48 -2 55 -3 3 -2 24 2 45 4 22 4 43 -1 45 -4 3 -4 18 1 34 4 16 6 32 2 35 -3
3 -6 54 -8 113 -3 137 -13 294 -27 464 -2 25 -7 51 -10 56 -4 6 -9 25 -11 44
-4 27 -32 140 -46 187 -2 4 -4 12 -6 17 -22 75 -84 340 -81 349 9 23 132 74
197 81 36 4 67 8 70 10 3 2 28 6 55 9 84 11 229 36 245 43 8 3 25 7 36 8 23 2
108 23 134 33 19 7 18 7 60 16 19 5 40 12 45 16 6 4 28 13 50 20 117 37 245
127 325 228 22 27 40 55 40 61 0 6 4 11 8 11 5 0 21 27 37 60 28 58 31 60 103
91 41 17 91 39 111 49 33 17 149 71 161 75 3 1 41 19 85 40 94 45 143 49 231
15 33 -12 64 -23 69 -24 6 -1 16 -5 23 -9 6 -5 43 -10 81 -12 118 -7 205 31
272 121 19 25 34 49 34 52 0 4 4 14 10 22 5 8 10 28 11 45 1 16 3 32 4 35 8
21 -10 128 -29 175 -15 37 -103 210 -115 225 -41 54 -123 230 -145 310 -23 81
-40 112 -85 153 -26 25 -79 59 -96 62 -3 1 -25 7 -50 14 -103 30 -186 31 -315
5 -91 -19 -188 -90 -210 -155 l-11 -31 -28 43 c-33 50 -90 109 -106 109 -5 0
-10 4 -10 9 0 11 -149 83 -210 101 -38 11 -133 74 -178 117 -7 7 -17 13 -21
13 -4 0 -17 9 -29 20 -23 22 -197 136 -252 166 -19 10 -37 22 -40 25 -6 8
-245 128 -310 156 -25 11 -76 33 -115 48 -38 16 -74 32 -79 37 -6 4 -20 8 -31
8 -17 0 -28 14 -49 63 -15 34 -35 76 -44 92 -9 17 -15 31 -14 33 8 9 -185 398
-245 492 -101 161 -242 323 -373 431 -66 54 -186 139 -196 139 -4 0 -15 6 -23
13 -17 15 -199 96 -228 102 -10 2 -43 12 -73 23 -30 10 -71 22 -90 26 -19 3
-46 9 -60 12 -50 12 -126 24 -180 30 -54 6 -318 13 -323 8z"/>
</g>
</svg>
