<?xml version="1.0" encoding="UTF-8"?>
<svg xmlns="http://www.w3.org/2000/svg" xmlns:xlink="http://www.w3.org/1999/xlink" width="164.9115pt" height="194.44pt" viewBox="0 -10 164.9115 214.44" version="1.1">
<defs>
<clipPath id="clip1">
  <path d="M 69 95 L 81 95 L 81 117 L 69 117 Z M 69 95 "/>
</clipPath>
<clipPath id="clip2">
  <path d="M 139.953125 64.644531 C 136.640625 66.617188 139.851562 73.734375 136.535156 75.675781 L 136.628906 81.84375 L 136.40625 85.019531 L 135.914062 87.933594 L 135.507812 89.355469 C 138.40625 88.050781 141.347656 86.703125 144.347656 85.265625 C 146.121094 84.417969 147.953125 85.074219 149.769531 85.726562 C 151.796875 86.460938 153.804688 87.195312 155.679688 85.816406 C 161.707031 81.394531 152.722656 74.378906 151.25 66.929688 C 150.789062 64.578125 147.816406 63.5 144.832031 63.5 C 143.027344 63.5 141.214844 63.894531 139.953125 64.644531 M 72.90625 86.976562 C 56.78125 90.765625 71.5625 102.898438 72.871094 112.464844 C 73.699219 118.527344 84.449219 124.617188 90.082031 121.019531 C 94.664062 118.089844 91.746094 112.648438 95.082031 110.332031 C 99.292969 107.40625 103.449219 104.878906 107.59375 102.59375 L 105.453125 102.183594 L 103.121094 101.628906 L 100.828125 100.988281 L 98.589844 100.269531 L 96.417969 99.488281 L 94.332031 98.644531 L 92.339844 97.761719 L 90.457031 96.847656 L 88.699219 95.90625 L 87.074219 94.949219 L 85.597656 93.988281 C 85.464844 93.890625 82.285156 91.625 79.632812 87.507812 C 78.480469 86.980469 77.171875 86.640625 75.648438 86.640625 C 74.804688 86.640625 73.894531 86.746094 72.90625 86.976562 "/>
</clipPath>
<clipPath id="clip3">
  <path d="M 87 91 L 124 91 L 124 113 L 87 113 Z M 87 91 "/>
</clipPath>
<clipPath id="clip4">
  <path d="M 139.953125 64.644531 C 136.640625 66.617188 139.851562 73.734375 136.535156 75.675781 L 136.628906 81.84375 L 136.40625 85.019531 L 135.914062 87.933594 L 135.507812 89.355469 C 138.40625 88.050781 141.347656 86.703125 144.347656 85.265625 C 146.121094 84.417969 147.953125 85.074219 149.769531 85.726562 C 151.796875 86.460938 153.804688 87.195312 155.679688 85.816406 C 161.707031 81.394531 152.722656 74.378906 151.25 66.929688 C 150.789062 64.578125 147.816406 63.5 144.832031 63.5 C 143.027344 63.5 141.214844 63.894531 139.953125 64.644531 M 72.90625 86.976562 C 56.78125 90.765625 71.5625 102.898438 72.871094 112.464844 C 73.699219 118.527344 84.449219 124.617188 90.082031 121.019531 C 94.664062 118.089844 91.746094 112.648438 95.082031 110.332031 C 99.292969 107.40625 103.449219 104.878906 107.59375 102.59375 L 105.453125 102.183594 L 103.121094 101.628906 L 100.828125 100.988281 L 98.589844 100.269531 L 96.417969 99.488281 L 94.332031 98.644531 L 92.339844 97.761719 L 90.457031 96.847656 L 88.699219 95.90625 L 87.074219 94.949219 L 85.597656 93.988281 C 85.464844 93.890625 82.285156 91.625 79.632812 87.507812 C 78.480469 86.980469 77.171875 86.640625 75.648438 86.640625 C 74.804688 86.640625 73.894531 86.746094 72.90625 86.976562 "/>
</clipPath>
<clipPath id="clip5">
  <path d="M 148 67 L 155 67 L 155 82 L 148 82 Z M 148 67 "/>
</clipPath>
<clipPath id="clip6">
  <path d="M 139.953125 64.644531 C 136.640625 66.617188 139.851562 73.734375 136.535156 75.675781 L 136.628906 81.84375 L 136.40625 85.019531 L 135.914062 87.933594 L 135.507812 89.355469 C 138.40625 88.050781 141.347656 86.703125 144.347656 85.265625 C 146.121094 84.417969 147.953125 85.074219 149.769531 85.726562 C 151.796875 86.460938 153.804688 87.195312 155.679688 85.816406 C 161.707031 81.394531 152.722656 74.378906 151.25 66.929688 C 150.789062 64.578125 147.816406 63.5 144.832031 63.5 C 143.027344 63.5 141.214844 63.894531 139.953125 64.644531 M 72.90625 86.976562 C 56.78125 90.765625 71.5625 102.898438 72.871094 112.464844 C 73.699219 118.527344 84.449219 124.617188 90.082031 121.019531 C 94.664062 118.089844 91.746094 112.648438 95.082031 110.332031 C 99.292969 107.40625 103.449219 104.878906 107.59375 102.59375 L 105.453125 102.183594 L 103.121094 101.628906 L 100.828125 100.988281 L 98.589844 100.269531 L 96.417969 99.488281 L 94.332031 98.644531 L 92.339844 97.761719 L 90.457031 96.847656 L 88.699219 95.90625 L 87.074219 94.949219 L 85.597656 93.988281 C 85.464844 93.890625 82.285156 91.625 79.632812 87.507812 C 78.480469 86.980469 77.171875 86.640625 75.648438 86.640625 C 74.804688 86.640625 73.894531 86.746094 72.90625 86.976562 "/>
</clipPath>
</defs>
<g id="surface1">
<path style=" stroke:none;fill-rule:evenodd;fill:rgb(13.729858%,12.159729%,12.548828%);fill-opacity:1;" d="M 35.203125 193.335938 C 31.890625 191.175781 30.304688 189.15625 29.875 185.484375 C 14.25 184.046875 18.570312 168.207031 28.722656 161.726562 C 28.433594 159.925781 28.148438 158.054688 28.003906 156.324219 C 23.035156 149.558594 -5.550781 109.238281 15.835938 107.222656 C 16.554688 107.222656 17.273438 107.652344 17.851562 108.375 C 21.59375 113.917969 23.035156 121.980469 26.347656 128.316406 C 28.867188 114.640625 29.441406 114.0625 30.304688 110.316406 C 23.179688 110.316406 14.828125 103.910156 10.792969 98.4375 C 8.632812 95.414062 7.699219 89.941406 7.699219 88.359375 C 7.121094 84.757812 6.90625 81.878906 7.195312 78.492188 C 7.339844 76.695312 9.425781 71.296875 9.714844 70.574219 C 16.769531 54.878906 15.617188 54.660156 23.035156 38.820312 C 26.996094 30.183594 29.296875 28.8125 37.792969 25.789062 C 51.1875 14.847656 68.394531 11.101562 84.449219 18.878906 C 95.96875 25.503906 100.289062 35.078125 105.1875 46.886719 C 113.609375 50.054688 120.953125 53.941406 127.867188 59.773438 C 140.753906 63.375 137.296875 70.429688 137.296875 81.808594 C 133.816406 99.066406 130.925781 102.648438 104.71875 105.632812 C 104.933594 107.144531 107.921875 118.023438 108.425781 120.398438 C 109.722656 134.367188 109.722656 146.820312 106.699219 160.359375 C 114.761719 166.335938 120.738281 174.472656 112.457031 182.605469 C 110.371094 184.621094 110.011719 184.765625 105.617188 186.0625 C 104.898438 189.015625 104.035156 190.742188 101.441406 192.757812 C 97.699219 194.847656 89.921875 195.421875 85.171875 193.335938 C 83.082031 192.472656 79.914062 190.957031 77.324219 189.15625 C 74.011719 185.628906 73.578125 182.894531 72.714844 178.285156 C 69.402344 178.285156 66.089844 178.429688 62.777344 178.574219 C 61.769531 184.910156 59.035156 188.726562 53.632812 192.324219 C 47.226562 195.640625 39.808594 194.773438 35.203125 193.335938 "/>
<path style=" stroke:none;fill-rule:evenodd;fill:rgb(100%,100%,100%);fill-opacity:1;" d="M 41.394531 128.75 C 42.835938 119.679688 44.273438 116.367188 52.339844 112.335938 C 63.066406 112.335938 75.59375 113.917969 75.59375 99.734375 C 71.128906 86.632812 66.667969 75.902344 74.730469 63.519531 C 80.996094 57.183594 84.019531 54.085938 82.289062 44.871094 C 78.472656 35.652344 73.289062 26.652344 68.25 17.871094 C 68.25 17.4375 68.25 17.4375 71.128906 17.871094 C 71.128906 18.304688 71.128906 18.734375 71.273438 19.164062 C 81.136719 34.933594 83.730469 45.304688 102.164062 48.613281 C 109.433594 51.492188 116.777344 54.949219 123.113281 59.484375 C 122.464844 59.988281 122.25 59.484375 117.785156 62.078125 C 113.609375 66.253906 110.875 68.34375 111.882812 73.453125 C 116.203125 83.175781 125.996094 83.175781 134.417969 78.492188 C 136.382812 115.210938 91.386719 98.160156 83.765625 89.640625 C 83.625 90.433594 75.449219 110.894531 75.449219 111.757812 C 79.769531 112.191406 84.019531 112.621094 88.339844 113.199219 C 90.929688 117.375 93.953125 121.550781 94.53125 126.589844 C 92.660156 140.917969 94.386719 157.480469 96.113281 171.808594 C 97.988281 175.550781 104.464844 184.191406 99.570312 187.574219 C 91.363281 189.15625 82.289062 187.503906 79.050781 179.582031 C 79.914062 167.199219 80.851562 154.886719 80.851562 142.503906 C 80.5625 141.78125 80.273438 141.0625 80.128906 140.34375 C 79.769531 140.917969 79.339844 141.640625 78.90625 142.359375 C 78.1875 152.582031 77.464844 162.734375 76.890625 172.957031 C 73.578125 174.542969 64.9375 173.535156 60.90625 173.535156 C 59.753906 158.917969 59.753906 158.917969 59.324219 146.246094 C 58.316406 141.640625 58.316406 141.640625 57.59375 140.34375 C 53.632812 152.726562 59.324219 168.207031 57.882812 181.164062 C 53.632812 187.71875 45.859375 189.015625 38.226562 187.574219 C 33.1875 184.480469 39.808594 174.976562 41.105469 171.375 C 42.835938 158.773438 42.976562 145.527344 42.976562 132.78125 C 42.691406 131.484375 42.402344 130.191406 42.257812 129.039062 C 41.96875 128.894531 41.683594 128.75 41.394531 128.75 "/>
<path style=" stroke:none;fill-rule:evenodd;fill:rgb(67.468262%,53.927612%,11.735535%);fill-opacity:1;" d="M 14.539062 121.550781 C 15.835938 120.253906 17.128906 119.101562 18.425781 117.949219 C 21.304688 125.582031 24.617188 132.0625 30.019531 138.183594 C 31.171875 128.320312 32.753906 119.101562 35.492188 109.597656 C 54.425781 109.3125 66.808594 103.910156 67.820312 83.605469 C 67.53125 81.15625 67.171875 78.640625 66.667969 76.046875 C 60.617188 56.390625 55.578125 37.816406 54.066406 33.925781 C 51.472656 29.246094 48.738281 27.660156 44.128906 25.359375 C 52.050781 20.605469 58.457031 17.007812 68.25 17.871094 C 73.289062 26.652344 78.472656 35.652344 82.289062 44.871094 C 84.019531 54.085938 80.996094 57.183594 74.730469 63.519531 C 66.667969 75.902344 71.128906 86.632812 75.59375 99.734375 C 75.59375 113.917969 63.066406 112.335938 52.339844 112.335938 C 44.273438 116.367188 42.835938 119.679688 41.394531 128.75 C 38.515625 141.640625 39.378906 156.613281 38.660156 169.933594 C 37.074219 173.390625 35.492188 176.847656 33.90625 180.445312 C 24.761719 180.445312 22.601562 176.847656 26.347656 168.351562 C 28.722656 165.472656 31.027344 164.175781 34.339844 162.445312 C 34.339844 153.15625 26.492188 145.671875 21.882812 138.183594 C 17.996094 130.621094 17.996094 130.621094 14.539062 121.550781 "/>
<path style=" stroke:none;fill-rule:evenodd;fill:rgb(67.468262%,53.927612%,11.735535%);fill-opacity:1;" d="M 94.53125 126.589844 C 93.953125 121.550781 90.929688 117.375 88.339844 113.199219 C 93.089844 112.621094 97.433594 108.375 102.328125 107.945312 C 107.152344 126.089844 107.417969 143.941406 103.316406 162.15625 C 112.601562 166.765625 120.089844 180.589844 103.746094 180.589844 C 102.019531 177.277344 100.433594 173.964844 98.851562 170.652344 C 97.988281 157.910156 97.121094 144.949219 96.835938 132.0625 C 96.402344 129.902344 95.96875 128.320312 94.53125 126.589844 "/>
<path style=" stroke:none;fill-rule:evenodd;fill:rgb(100%,100%,100%);fill-opacity:1;" d="M 14.539062 121.550781 C 13.820312 118.09375 11.945312 113.628906 13.675781 110.175781 C 14.324219 109.597656 14.96875 109.382812 15.546875 110.175781 C 16.84375 112.910156 18.136719 114.78125 18.425781 117.949219 C 17.128906 119.101562 15.835938 120.253906 14.539062 121.550781 "/>
<path style=" stroke:none;fill-rule:evenodd;fill:rgb(67.468262%,53.927612%,11.735535%);fill-opacity:1;" d="M 35.921875 106.503906 C -5.835938 98.148438 17.132812 60.78125 30.019531 34.933594 C 37.363281 25.070312 47.011719 27.230469 52.484375 37.09375 C 57.308594 55.671875 57.308594 55.671875 63.066406 73.597656 C 64.507812 82.527344 66.019531 89.941406 61.050781 98.148438 C 53.203125 106.070312 46.722656 106.214844 35.921875 106.503906 "/>
<path style=" stroke:none;fill-rule:evenodd;fill:rgb(58.706665%,45.478821%,14.852905%);fill-opacity:1;" d="M 37.792969 102.472656 C 36.210938 102.039062 34.625 101.605469 33.1875 101.320312 C 44.417969 95.269531 53.203125 89.941406 60.617188 79.214844 C 60.90625 79.214844 61.195312 79.359375 61.484375 79.503906 C 61.484375 96.277344 53.777344 100.597656 37.792969 102.472656 "/>
<path style=" stroke:none;fill-rule:evenodd;fill:rgb(100%,100%,100%);fill-opacity:1;" d="M 116.925781 71.644531 C 116.925781 67.039062 129.453125 62.429688 132.335938 65.308594 C 128.589844 70.207031 122.832031 71.214844 116.925781 71.644531 "/>
<path style=" stroke:none;fill-rule:evenodd;fill:rgb(13.729858%,12.159729%,12.548828%);fill-opacity:1;" d="M 66.378906 50.847656 C 63.570312 50.125 59.464844 47.605469 62.058594 42.996094 C 63.210938 41.773438 65.660156 41.125 67.386719 40.984375 C 74.515625 40.191406 79.984375 47.03125 70.984375 50.847656 C 69.476562 51.207031 68.324219 51.351562 66.378906 50.847656 "/>
<path style=" stroke:none;fill-rule:evenodd;fill:rgb(67.468262%,53.927612%,11.735535%);fill-opacity:1;" d="M 71.128906 17.871094 C 82.722656 19.886719 92.945312 25.789062 97.699219 37.09375 C 91.21875 37.671875 88.773438 42.277344 94.964844 45.878906 C 96.691406 46.382812 100.867188 45.660156 101.515625 45.375 C 101.660156 46.382812 101.875 47.605469 102.164062 48.613281 C 83.730469 45.304688 81.140625 34.933594 71.273438 19.164062 C 71.128906 18.734375 71.128906 18.304688 71.128906 17.871094 "/>
<path style=" stroke:none;fill-rule:evenodd;fill:rgb(100%,100%,100%);fill-opacity:1;" d="M 65.371094 44.871094 C 65.082031 43.863281 64.652344 43.863281 64.507812 42.996094 C 65.515625 42.566406 65.515625 42.566406 67.242188 42.710938 C 67.53125 42.996094 67.027344 43.285156 67.316406 43.71875 C 66.882812 44.296875 66.808594 44.222656 66.523438 44.800781 C 65.800781 44.800781 65.945312 44.726562 65.371094 44.871094 "/>
<path style=" stroke:none;fill-rule:evenodd;fill:rgb(100%,100%,100%);fill-opacity:1;" d="M 94.242188 41.199219 C 93.953125 40.046875 93.808594 40.765625 94.386719 39.902344 C 96.617188 39.902344 96.257812 39.253906 95.828125 41.414062 C 95.105469 41.558594 94.820312 41.054688 94.242188 41.199219 "/>
<path style=" stroke:none;fill-rule:evenodd;fill:rgb(100%,100%,100%);fill-opacity:1;" d="M 94.890625 39.324219 C 95.828125 39.324219 96.546875 39.902344 96.546875 40.621094 C 96.546875 41.34375 95.828125 41.988281 94.890625 41.988281 C 93.953125 41.988281 93.234375 41.34375 93.234375 40.621094 C 93.234375 39.902344 93.953125 39.324219 94.890625 39.324219 "/>
<path style=" stroke:none;fill-rule:evenodd;fill:rgb(100%,100%,100%);fill-opacity:1;" d="M 66.164062 42.421875 C 67.171875 42.421875 68.035156 43.070312 68.035156 43.863281 C 68.035156 44.652344 67.171875 45.304688 66.164062 45.304688 C 65.15625 45.304688 64.363281 44.652344 64.363281 43.863281 C 64.363281 43.070312 65.15625 42.421875 66.164062 42.421875 "/>
<path style=" stroke:none;fill-rule:evenodd;fill:rgb(13.729858%,12.159729%,12.548828%);fill-opacity:1;" d="M 115.324219 101.183594 L 111.648438 103.117188 L 111.164062 103.371094 L 110.679688 103.632812 L 110.199219 103.890625 L 109.714844 104.152344 L 109.234375 104.414062 L 108.75 104.683594 L 108.265625 104.949219 L 107.785156 105.21875 L 107.300781 105.492188 L 106.820312 105.765625 L 106.335938 106.042969 L 105.367188 106.605469 L 104.886719 106.890625 L 104.402344 107.179688 L 103.921875 107.46875 L 103.433594 107.761719 L 102.953125 108.058594 L 102.46875 108.355469 L 101.5 108.964844 L 101.011719 109.273438 L 100.527344 109.582031 L 100.042969 109.898438 L 99.554688 110.214844 L 99.070312 110.535156 L 98.582031 110.859375 L 98.097656 111.1875 L 97.605469 111.515625 L 97.117188 111.851562 L 96.671875 112.160156 L 96.503906 112.289062 L 96.394531 112.390625 L 96.300781 112.496094 L 96.21875 112.613281 L 96.136719 112.742188 L 96.0625 112.898438 L 95.988281 113.078125 L 95.921875 113.28125 L 95.859375 113.511719 L 95.796875 113.773438 L 95.746094 114.058594 L 95.695312 114.367188 L 95.648438 114.699219 L 95.601562 115.050781 L 95.554688 115.421875 L 95.507812 115.808594 L 95.453125 116.214844 L 95.386719 116.632812 L 95.3125 117.070312 L 95.222656 117.515625 L 95.109375 117.972656 L 94.976562 118.441406 L 94.8125 118.917969 L 94.617188 119.398438 L 94.386719 119.878906 L 94.117188 120.359375 L 93.800781 120.832031 L 93.441406 121.289062 L 93.039062 121.734375 L 92.589844 122.15625 L 92.097656 122.554688 L 91.546875 122.933594 L 90.832031 123.339844 L 90.074219 123.679688 L 89.292969 123.945312 L 88.5 124.136719 L 87.695312 124.265625 L 86.886719 124.328125 L 86.070312 124.335938 L 85.257812 124.289062 L 84.449219 124.195312 L 83.644531 124.050781 L 82.84375 123.867188 L 82.050781 123.636719 L 81.265625 123.371094 L 80.492188 123.070312 L 79.734375 122.734375 L 78.988281 122.363281 L 78.261719 121.960938 L 77.550781 121.53125 L 76.863281 121.070312 L 76.195312 120.582031 L 75.554688 120.070312 L 74.945312 119.53125 L 74.363281 118.96875 L 73.816406 118.378906 L 73.304688 117.769531 L 72.828125 117.136719 L 72.398438 116.480469 L 72.011719 115.796875 L 71.679688 115.09375 L 71.402344 114.363281 L 71.1875 113.613281 L 71.058594 112.933594 L 70.910156 112.097656 L 70.714844 111.316406 L 70.457031 110.5 L 70.140625 109.65625 L 69.777344 108.78125 L 69.367188 107.890625 L 68.925781 106.980469 L 68.453125 106.054688 L 67.964844 105.121094 L 67.460938 104.175781 L 66.957031 103.226562 L 66.453125 102.273438 L 65.964844 101.316406 L 65.496094 100.355469 L 65.054688 99.390625 L 64.65625 98.421875 L 64.300781 97.449219 L 64 96.46875 L 63.773438 95.476562 L 63.625 94.46875 L 63.582031 93.445312 L 63.664062 92.410156 L 63.886719 91.378906 L 64.273438 90.367188 L 64.824219 89.410156 L 65.53125 88.527344 L 66.390625 87.730469 L 67.382812 87.023438 L 68.507812 86.398438 L 69.769531 85.851562 L 71.171875 85.371094 L 72.730469 84.953125 L 73.746094 84.753906 L 74.730469 84.621094 L 75.683594 84.566406 L 76.605469 84.578125 L 77.496094 84.660156 L 78.34375 84.804688 L 79.160156 85.003906 L 79.929688 85.25 L 80.667969 85.546875 L 81.109375 85.757812 C 82.023438 87.003906 83.015625 88.320312 84.082031 89.722656 C 88.140625 94.261719 102.804688 101.21875 115.324219 101.183594 M 135.871094 73.8125 L 135.917969 73.757812 L 135.96875 73.683594 L 136.027344 73.578125 L 136.089844 73.441406 L 136.148438 73.261719 L 136.207031 73.039062 L 136.257812 72.785156 L 136.300781 72.496094 L 136.335938 72.179688 L 136.359375 71.832031 L 136.378906 71.464844 L 136.386719 71.078125 L 136.398438 70.671875 L 136.402344 70.253906 L 136.40625 69.820312 L 136.414062 69.378906 L 136.429688 68.925781 L 136.449219 68.464844 L 136.484375 67.996094 L 136.53125 67.523438 L 136.597656 67.039062 L 136.691406 66.550781 L 136.816406 66.058594 L 136.980469 65.558594 L 137.191406 65.0625 L 137.460938 64.566406 L 137.789062 64.085938 L 138.183594 63.632812 L 138.644531 63.226562 L 139.136719 62.886719 L 139.609375 62.625 L 140.066406 62.410156 L 140.535156 62.21875 L 141.015625 62.046875 L 141.507812 61.898438 L 142.003906 61.773438 L 142.507812 61.667969 L 143.023438 61.578125 L 143.539062 61.511719 L 144.0625 61.464844 L 144.585938 61.433594 L 145.113281 61.421875 L 145.640625 61.433594 L 146.167969 61.460938 L 146.695312 61.507812 L 147.214844 61.574219 L 147.734375 61.664062 L 148.25 61.777344 L 148.753906 61.910156 L 149.253906 62.066406 L 149.746094 62.25 L 150.222656 62.464844 L 150.691406 62.703125 L 151.144531 62.980469 L 151.582031 63.289062 L 152 63.640625 L 152.386719 64.03125 L 152.742188 64.464844 L 153.0625 64.941406 L 153.328125 65.460938 L 153.539062 66.011719 L 153.667969 66.503906 L 153.820312 67.171875 L 153.988281 67.757812 L 154.191406 68.355469 L 154.425781 68.960938 L 154.691406 69.578125 L 154.984375 70.203125 L 155.296875 70.828125 L 155.632812 71.460938 L 155.980469 72.097656 L 156.339844 72.734375 L 156.707031 73.375 L 157.078125 74.015625 L 157.8125 75.304688 L 158.167969 75.953125 L 158.511719 76.601562 L 158.839844 77.253906 L 159.148438 77.910156 L 159.429688 78.578125 L 159.679688 79.253906 L 159.890625 79.941406 L 160.058594 80.644531 L 160.171875 81.367188 L 160.214844 82.109375 L 160.183594 82.863281 L 160.0625 83.628906 L 159.839844 84.390625 L 159.515625 85.128906 L 159.089844 85.828125 L 158.570312 86.484375 L 157.960938 87.089844 L 157.273438 87.644531 L 156.773438 87.980469 L 156.253906 88.257812 L 155.722656 88.480469 L 155.183594 88.648438 L 154.644531 88.757812 L 154.113281 88.820312 L 153.597656 88.835938 L 153.097656 88.816406 L 152.613281 88.765625 L 152.148438 88.6875 L 151.699219 88.59375 L 151.269531 88.480469 L 150.851562 88.359375 L 150.449219 88.230469 L 150.058594 88.09375 L 149.679688 87.960938 L 149.320312 87.828125 L 148.964844 87.703125 L 148.628906 87.585938 L 148.300781 87.476562 L 147.988281 87.378906 L 147.691406 87.292969 L 147.410156 87.226562 L 147.148438 87.171875 L 146.902344 87.136719 L 146.675781 87.113281 L 146.46875 87.109375 L 146.277344 87.117188 L 146.097656 87.140625 L 145.929688 87.179688 L 145.765625 87.230469 L 145.550781 87.320312 L 145.226562 87.476562 L 144.859375 87.652344 L 144.488281 87.828125 L 144.121094 88 L 143.757812 88.171875 L 143.390625 88.347656 L 143.023438 88.519531 L 142.65625 88.6875 L 142.296875 88.859375 L 141.929688 89.027344 L 141.203125 89.363281 L 140.84375 89.53125 L 140.480469 89.695312 L 140.117188 89.863281 L 138.679688 90.519531 L 138.320312 90.679688 L 137.964844 90.84375 L 137.605469 91.003906 L 135.472656 91.964844 L 135.121094 92.121094 L 134.765625 92.28125 L 134.414062 92.4375 L 131.625 93.679688 C 133.882812 90.183594 135.09375 85.28125 134.734375 78.578125 C 134.710938 77.382812 134.679688 75.984375 134.632812 74.53125 L 134.800781 74.4375 L 135.039062 74.304688 L 135.503906 74.042969 L 135.695312 73.933594 L 135.820312 73.855469 Z M 135.871094 73.8125 "/>
<path style=" stroke:none;fill-rule:evenodd;fill:rgb(100%,100%,100%);fill-opacity:1;" d="M 107.59375 102.59375 C 103.449219 104.878906 99.292969 107.40625 95.082031 110.332031 C 91.746094 112.648438 94.660156 118.089844 90.078125 121.019531 C 84.449219 124.617188 73.699219 118.527344 72.871094 112.464844 C 71.5625 102.898438 56.78125 90.769531 72.90625 86.976562 C 75.675781 86.324219 77.84375 86.6875 79.632812 87.507812 C 82.285156 91.625 85.464844 93.890625 85.597656 93.988281 L 87.074219 94.949219 L 88.699219 95.90625 L 90.457031 96.847656 L 92.339844 97.761719 L 94.332031 98.644531 L 96.417969 99.488281 L 98.589844 100.269531 L 100.828125 100.988281 L 103.121094 101.628906 L 105.453125 102.183594 Z M 136.535156 75.675781 C 139.851562 73.734375 136.636719 66.613281 139.953125 64.644531 C 143.300781 62.65625 150.507812 63.160156 151.25 66.929688 C 152.722656 74.375 161.707031 81.394531 155.679688 85.820312 C 152.132812 88.421875 148.109375 83.46875 144.347656 85.265625 C 141.347656 86.703125 138.40625 88.050781 135.507812 89.355469 L 135.914062 87.933594 L 136.40625 85.019531 L 136.628906 81.84375 Z M 136.535156 75.675781 "/>
<g clip-path="url(#clip1)" clip-rule="nonzero">
<g clip-path="url(#clip2)" clip-rule="nonzero">
<path style=" stroke:none;fill-rule:evenodd;fill:rgb(86.593628%,86.154175%,85.827637%);fill-opacity:1;" d="M 69.773438 97.910156 C 73.972656 102.820312 75.835938 107.128906 77.347656 115.136719 C 79.96875 120.878906 81.34375 106.175781 79.425781 102.171875 C 77.90625 99.003906 68.085938 92.148438 69.773438 97.910156 "/>
</g>
</g>
<g clip-path="url(#clip3)" clip-rule="nonzero">
<g clip-path="url(#clip4)" clip-rule="nonzero">
<path style=" stroke:none;fill-rule:evenodd;fill:rgb(86.593628%,86.154175%,85.827637%);fill-opacity:1;" d="M 88.636719 112.683594 C 95.851562 103.625 113.183594 96.785156 123.820312 91.632812 C 108.621094 97.335938 98.636719 102.628906 88.191406 108.382812 C 86.851562 109.847656 86.703125 111.285156 88.636719 112.683594 "/>
</g>
</g>
<g clip-path="url(#clip5)" clip-rule="nonzero">
<g clip-path="url(#clip6)" clip-rule="nonzero">
<path style=" stroke:none;fill-rule:evenodd;fill:rgb(86.593628%,86.154175%,85.827637%);fill-opacity:1;" d="M 148.792969 67.660156 C 149.039062 73.648438 152.265625 74.820312 154.59375 81.210938 C 154.714844 83.566406 150.113281 79.128906 149.238281 76.5625 C 148.167969 73.425781 148.347656 70.640625 148.792969 67.660156 "/>
</g>
</g>
</g>
</svg>
